<svg height="511pt" viewBox="-63 0 511 511.998" width="511pt" xmlns="http://www.w3.org/2000/svg"><path d="m162.777344 315.90625h60.445312v96.714844h-60.445312zm0 0" fill="#e8916f"/><path d="m84.195312 228.863281v-81.078125c0-56.710937 45.972657-102.683594 102.683594-102.683594h12.242188c56.710937 0 102.683594 45.972657 102.683594 102.683594v81.078125c0 60.089844-48.714844 108.800781-108.804688 108.800781-60.09375.003907-108.804688-48.710937-108.804688-108.800781zm0 0" fill="#ebad88"/><path d="m199.121094 45.105469h-12.242188c-4.066406 0-35.75 46.246093-39.695312 46.707031-4.070313 35.003906 18.144531 54.839844 56.34375 69.59375 21 8.113281 34.808594 28.363281 34.808594 50.875v16.582031c0 53.910157-12.011719 98.65625-63.472657 107.289063 5.898438.992187 11.957031 1.515625 18.136719 1.515625 60.089844 0 108.804688-48.714844 108.804688-108.804688v-81.078125c0-56.710937-45.972657-102.679687-102.683594-102.679687zm0 0" fill="#e8916f"/><path d="m171.730469 27.875s17.878906-20.375 55.101562-20.375c60.8125 0 94.300781 54.550781 100.984375 101.644531 6.683594 47.089844 50.183594 44.546875 50.183594 122.257813 0 70.933594-84.039062 86-101.320312 74.726562-10.261719-6.695312-5.992188-35.890625-2.367188-73.777344 4.136719-43.222656-22.898438-83.429687-64.550781-95.695312-26.125-7.691406-52.332031-21.179688-62.578125-44.84375 0 0-8.089844 26.296875-24.582032 43.8125-17.992187 19.105469-27.027343 44.9375-24.574218 71.066406 3.910156 41.667969 6.363281 92.46875-4.0625 98.671875-18.007813 10.710938-82.476563.578125-85.796875-65.320312-3.324219-65.902344 44.171875-90.039063 48.660156-126.277344 5.992187-48.328125 36.832031-104.007813 114.902344-85.890625zm0 0" fill="#b0693c"/><path d="m327.816406 109.144531c-6.683594-47.09375-40.171875-101.644531-100.988281-101.644531-5.398437 0-10.378906.4375-14.96875 1.171875 51.324219 8.132813 79.84375 57.417969 85.957031 100.472656 6.683594 47.089844 50.183594 44.546875 50.183594 122.257813 0 47.65625-37.933594 70.09375-68.070312 76.273437 22.613281 7.992188 98.070312-9.054687 98.070312-76.273437 0-77.710938-43.5-75.167969-50.183594-122.257813zm0 0" fill="#9c5d35"/><path d="m323 504.5h-260v-60c0-33.136719 26.863281-60 60-60h140c33.136719 0 60 26.863281 60 60zm0 0" fill="#62636e"/><path d="m263 384.5h-30c33.136719 0 60 26.863281 60 60v60h30v-60c0-33.136719-26.863281-60-60-60zm0 0" fill="#525463"/><path d="m155 384.5h76v120h-76zm0 0" fill="#d1c4c4"/><path d="m192.96875 383.386719-30.898438-27.847657c-.734374-.664062-1.847656-.6875-2.609374-.058593l-32.1875 26.511719c-.910157.75-.976563 2.113281-.152344 2.949218l28.019531 28.351563c.738281.746093 1.925781.796875 2.722656.113281zm0 0" fill="#ebe4e2"/><path d="m193.03125 383.386719 30.898438-27.847657c.734374-.664062 1.84375-.6875 2.609374-.058593l32.1875 26.511719c.90625.75.976563 2.113281.152344 2.949218l-28.023437 28.351563c-.734375.746093-1.921875.796875-2.71875.113281zm0 0" fill="#ebe4e2"/><path d="m158.328125 239.808594h-43.554687c-12.632813 0-22.878907-10.242188-22.878907-22.878906v-23.351563c0-12.636719 10.246094-22.878906 22.878907-22.878906h43.554687c12.636719 0 22.878906 10.242187 22.878906 22.878906v23.351563c0 12.636718-10.242187 22.878906-22.878906 22.878906zm0 0" fill="#8bebdb"/><path d="m271.222656 239.808594h-43.550781c-12.636719 0-22.878906-10.242188-22.878906-22.878906v-23.351563c0-12.636719 10.242187-22.878906 22.878906-22.878906h43.550781c12.636719 0 22.882813 10.242187 22.882813 22.878906v23.351563c0 12.636718-10.246094 22.878906-22.882813 22.878906zm0 0" fill="#8bebdb"/><path d="m355.175781 146.601562c-9.367187-11.3125-17.457031-21.082031-19.933593-38.515624-2.277344-16.039063-7.386719-32.148438-14.773438-46.582032-1.886719-3.6875-6.40625-5.144531-10.09375-3.261718-3.6875 1.890624-5.144531 6.40625-3.261719 10.097656 6.640625 12.972656 11.230469 27.445312 13.277344 41.851562 3.070313 21.628906 13.320313 34.007813 23.234375 45.976563 13.210938 15.957031 26.875 32.453125 26.875 75.230469 0 32.980468-19.785156 50.621093-36.386719 59.613281-22.667969 12.277343-47.414062 12.695312-53.335937 8.835937-.085938-.054687-.363282-.265625-.71875-.859375-.085938-.179687-.183594-.359375-.289063-.539062-.832031-1.726563-1.886719-5.488281-2-13.507813-.140625-10.121094 1.1875-23.542968 2.738281-39.085937 12.222657-3.929688 21.09375-15.414063 21.09375-28.925781v-23.351563c0-16.753906-13.628906-30.378906-30.378906-30.378906h-9.792968c-12.542969-16.070313-30-27.984375-49.554688-33.734375-30.582031-9.003906-50.035156-22.679688-57.816406-40.636719-1.25-2.882813-4.160156-4.683594-7.292969-4.503906-3.132813.167969-5.832031 2.277343-6.757813 5.273437-.074218.25-7.8125 24.898438-22.875 40.878906-10.960937 11.648438-18.988281 25.820313-23.304687 41.113282-5.8125 5.539062-9.4375 13.347656-9.4375 21.988281v23.351563c0 8.191406 3.257813 15.636718 8.550781 21.105468 1.386719 23.3125 1.054688 37.824219.195313 46.824219-.074219.390625-.113281.789063-.121094 1.1875-1.019531 9.570313-2.636719 12.351563-3.152344 13.015625-5.175781 2.875-17.546875 3.753906-30.730469-.257812-3.964843-1.199219-8.152343 1.03125-9.359374 4.996093-1.203126 3.960938 1.03125 8.152344 4.996093 9.355469 7.480469 2.273438 15.0625 3.398438 22.023438 3.398438 8.289062 0 15.695312-1.59375 20.992187-4.75 2.339844-1.390626 4.574219-3.574219 6.414063-7.792969 13.683593 16.226562 31.316406 28.21875 51.074219 34.949219v10.28125c-.199219.140624-.394532.289062-.585938.449218-33.9375 27.984375-32.285156 26.507813-33.054688 27.320313-36.59375.726562-66.140624 30.722656-66.140624 67.484375v60c0 4.144531 3.359374 7.5 7.5 7.5h260.003906c4.144531 0 7.5-3.355469 7.5-7.5v-16.75c0-4.140625-3.355469-7.5-7.5-7.5-4.144532 0-7.5 3.359375-7.5 7.5v9.253906h-77v-80.773438l23.949218-24.226562h.554688c28.945312 0 52.5 23.550781 52.5 52.5v11.25c0 4.144531 3.355469 7.5 7.5 7.5 4.140625 0 7.5-3.355469 7.5-7.5v-11.25c0-36.765625-29.546875-66.757812-66.140625-67.484375-.269531-.289063-.558594-.558594-.867187-.8125l-32.1875-26.515625c-.191407-.15625-.386719-.304688-.585938-.441406v-10.390625c15.820312-5.4375 30.421875-14.253907 42.664062-25.953125 4.777344 2.792968 11.664063 4.125 19.617188 4.125 14.671875 0 32.960938-4.539063 48.261719-12.828125 28.527343-15.453125 44.238281-41.308594 44.238281-72.800781 0-48.179688-16.109375-67.632813-30.324219-84.796876zm-68.574219 46.976563v23.351563c0 8.480468-6.898437 15.378906-15.378906 15.378906h-43.554687c-8.480469 0-15.378907-6.898438-15.378907-15.378906v-23.351563c0-8.480469 6.898438-15.378906 15.378907-15.378906h29.84375.335937 13.375c8.480469 0 15.378906 6.898437 15.378906 15.378906zm-158.546874-52.8125c9.433593-10.011719 16.238281-22.488281 20.558593-32.039063 11.96875 15.3125 31.742188 27.09375 59.027344 35.128907 12.777344 3.757812 24.1875 10.347656 33.628906 19.34375h-13.601562c-16.75 0-30.378907 13.628906-30.378907 30.378906v4.179687h-8.582031v-4.179687c0-16.75-13.628906-30.378906-30.378906-30.378906h-43.554687c-.644532 0-1.28125.019531-1.917969.0625 3.804687-8.226563 8.941406-15.847657 15.199219-22.496094zm-28.660157 76.164063v-23.351563c0-8.480469 6.898438-15.378906 15.378907-15.378906h43.554687c8.480469 0 15.378906 6.898437 15.378906 15.378906v23.351563c0 8.480468-6.898437 15.378906-15.378906 15.378906h-43.554687c-8.480469 0-15.378907-6.898438-15.378907-15.378906zm61.171875 147.351562 21.03125 18.957031-24.71875 21.140625-20.191406-20.425781zm-90.070312 80.21875c0-28.949219 23.554687-52.5 52.5-52.5h.554687l23.945313 24.226562v80.773438h-77zm92 52.5v-77.695312c.082031-.066407.160156-.132813.242187-.199219l30.261719-25.878907 30.257812 25.878907c.078126.066406.160157.132812.242188.199219v77.695312zm86.8125-113.046875-20.191406 20.425781-24.71875-21.140625 21.03125-18.957031zm-33.589844-31.109375-22.71875 20.472656-22.722656-20.472656v-9.875c7.390625 1.453125 14.992187 2.203125 22.722656 2.203125 7.679688 0 15.285156-.769531 22.71875-2.257813zm-22.71875-22.671875c-34.433594 0-65.929688-17.074219-84.757812-45.804687.769531-9.144532.914062-21.34375.175781-37.726563 2.050781.4375 4.175781.667969 6.355469.667969h43.554687c16.75 0 30.378906-13.628906 30.378906-30.378906v-4.175782h8.582031v4.175782c0 16.75 13.628907 30.378906 30.378907 30.378906h37.625c-2.339844 23.488281-3.933594 41.527344-.667969 53.179687-18.929688 18.917969-44.78125 29.683594-71.625 29.683594zm0 0"/><path d="m64.269531 114.691406c3.863281-31.171875 17.242188-56.84375 36.699219-70.4375 17.898438-12.5 41.132812-15.550781 69.0625-9.066406 2.695312.625 5.511719-.28125 7.332031-2.359375.160157-.179687 16.027344-17.828125 49.464844-17.828125 24.492187 0 46.398437 9.878906 63.355469 28.574219 2.78125 3.066406 7.523437 3.296875 10.59375.515625 3.066406-2.78125 3.296875-7.527344.515625-10.59375-19.875-21.914063-45.625-33.496094-74.464844-33.496094-31.292969 0-50.199219 13.355469-57.410156 19.695312-30.503907-6.265624-56.40625-2.148437-77.039063 12.261719-22.9375 16.023438-38.609375 45.507813-42.996094 80.890625-1.542968 12.433594-9.292968 23.847656-18.269531 37.0625-14.519531 21.375-32.589843 47.980469-30.4375 90.507813 1.136719 22.601562 9.335938 41.726562 23.710938 55.300781 3.007812 2.839844 7.757812 2.707031 10.601562-.304688 2.84375-3.011718 2.707031-7.757812-.304687-10.605468-11.671875-11.023438-18.074219-26.210938-19.027344-45.148438-1.894531-37.503906 13.914062-60.78125 27.863281-81.320312 9.652344-14.203125 18.765625-27.621094 20.75-43.648438zm0 0"/></svg>